<svg xmlns="http://www.w3.org/2000/svg" viewBox="0 0 110 112">
  <path fill="#006ec8" d="M50.5,2l-14.1,14.1-3.8,3.8-.3.3-4,4-13.7,13.7c-4.3,4.3-1.2,11.5,4.8,11.5h24.8c4.3,0,8.4,1.7,11.4,4.7l28.2,28.3c1.1,1.1,2.8,1.1,3.8,0l7.2-7.2c1.1-1.1,1.1-2.8,0-3.8l-28.2-28.3c-3-3-4.7-7.1-4.7-11.4V6.7c0-6-7.2-8.9-11.4-4.7h0Z"/>
  <path fill="#ff7e00" d="M74.7,17.7c-1.8-1.9-5-.5-5,2.1v12c0,2.3.9,4.4,2.5,6l28,28c1.1,1.1,3,1.1,4.1,0l4.7-4.7c2.5-2.5,2.5-6.6,0-9.2l-34.3-34.3h0Z"/>
  <path fill="#006ec8" d="M50.2,59.6c-1.6-1.6-3.8-2.5-6-2.5H3.7c-2.6,0-4,3.2-2.2,5,0,0,0,0,0,0l47.8,47.9c1.5,1.5,3.4,2.2,5.3,2.3,1.9,0,3.8-.8,5.3-2.2l18.4-18.4c1.1-1.1,1.1-2.8,0-3.9l-28.2-28.2h0Z"/>
</svg>
